<svg width="167" height="61" viewBox="0 0 167 61" fill="none" xmlns="http://www.w3.org/2000/svg">
<path d="M11.9546 12.5057V17.7036H10.3763V12.5057H8.52979V11.1467H13.8045V12.5057H11.9546Z" fill="white"/>
<path d="M20.5014 17.7171V14.9788H17.9523V17.7171H16.3705V11.1704H17.9523V13.6471H20.5014V11.1704H22.0797V17.7171H20.5014Z" fill="white"/>
<path d="M25.2771 17.7171V11.1704H29.6896V12.5056H26.8181V13.7422H29.5335V15.0094H26.8181V16.3683H29.8729V17.7273L25.2771 17.7171Z" fill="white"/>
<path d="M6.56791 36.0627V42.4022H0V22.7485H8.42457C9.4119 22.7486 10.3963 22.8556 11.3606 23.0679C12.28 23.2648 13.1547 23.6312 13.9403 24.1482C14.7054 24.669 15.3322 25.3687 15.7664 26.1866C16.2191 27.1717 16.4536 28.2432 16.4536 29.3275C16.4536 30.4118 16.2191 31.4833 15.7664 32.4683C15.3343 33.2915 14.7173 34.0033 13.964 34.5475C13.1868 35.098 12.311 35.4936 11.3844 35.7128C10.4105 35.9541 9.41083 36.075 8.4076 36.0729L6.56791 36.0627ZM6.56791 27.8819V31.0414H7.96634C8.44469 31.0446 8.91458 30.9153 9.32405 30.6677C9.53315 30.5347 9.70188 30.3469 9.81197 30.1247C9.92206 29.9025 9.96931 29.6545 9.94859 29.4073C9.9608 29.1424 9.90346 28.8788 9.78227 28.6429C9.67302 28.452 9.51484 28.2936 9.32405 28.1843C9.12064 28.072 8.90065 27.9928 8.67235 27.9499C8.43505 27.9054 8.19419 27.8826 7.95277 27.8819H6.56791Z" fill="white"/>
<path d="M18.346 32.4583C18.3194 30.9974 18.5992 29.5473 19.1674 28.2014C19.6937 26.9748 20.472 25.8729 21.4518 24.9671C22.4566 24.0661 23.6299 23.3733 24.9037 22.9287C27.7056 21.9684 30.7471 21.9684 33.5489 22.9287C34.8258 23.3756 36.0031 24.0681 37.0145 24.9671C38.0016 25.8701 38.786 26.9725 39.3158 28.2014C39.8847 29.5473 40.1668 30.9971 40.144 32.4583C40.164 33.9324 39.8821 35.395 39.3158 36.7559C38.789 38.0102 38.005 39.1398 37.0145 40.0717C36.0114 41.0025 34.8333 41.7242 33.5489 42.195C30.753 43.1905 27.6997 43.1905 24.9037 42.195C23.6223 41.7265 22.4482 41.0044 21.4518 40.0717C20.4686 39.1372 19.6906 38.0079 19.1674 36.7559C18.6018 35.395 18.3222 33.9321 18.346 32.4583ZM25.3552 32.4583C25.3484 33.0619 25.4472 33.6621 25.6471 34.2317C25.8252 34.7415 26.0982 35.213 26.4515 35.6212C26.7917 36.0077 27.2122 36.315 27.6836 36.5215C28.1734 36.7368 28.7033 36.8457 29.2382 36.8408C29.76 36.8468 30.2771 36.7411 30.7548 36.5307C31.2325 36.3204 31.6597 36.0103 32.0079 35.6212C32.368 35.2154 32.6458 34.7435 32.8259 34.2317C33.0258 33.6621 33.1246 33.0619 33.1179 32.4583C33.1238 31.868 33.025 31.2813 32.8259 30.7256C32.651 30.2285 32.3721 29.7745 32.0079 29.3939C31.6483 29.0241 31.2173 28.7313 30.7412 28.5334C30.2651 28.3354 29.7537 28.2363 29.2382 28.2422C28.7047 28.2378 28.1758 28.3418 27.6836 28.5479C27.2192 28.7421 26.7997 29.0301 26.4515 29.3939C26.0939 29.7771 25.82 30.2306 25.6471 30.7256C25.448 31.2813 25.3492 31.868 25.3552 32.4583Z" fill="white"/>
<path d="M52.0171 42.9423C50.6546 42.9716 49.2979 42.7553 48.0119 42.3036C46.9528 41.9278 45.9848 41.3328 45.1709 40.5574C44.4145 39.8227 43.8342 38.926 43.4738 37.9347C43.0977 36.8901 42.9104 35.7869 42.9205 34.6766V22.7485H49.5156V33.9598C49.4681 34.7527 49.7092 35.536 50.1944 36.1646C50.7076 36.6715 51.3996 36.9557 52.1207 36.9557C52.8417 36.9557 53.5337 36.6715 54.0469 36.1646C54.5335 35.5367 54.7748 34.7529 54.7257 33.9598V22.7485H61.2937V34.6766C61.3038 35.7905 61.1022 36.8961 60.6997 37.9347C60.3126 38.9281 59.711 39.8237 58.938 40.5574C58.1038 41.3335 57.118 41.928 56.0427 42.3036C54.7491 42.753 53.3862 42.9692 52.0171 42.9423Z" fill="white"/>
<path d="M64.0736 32.5703C64.0516 31.1034 64.3348 29.6479 64.9052 28.2965C65.43 27.0616 66.2029 25.948 67.1759 25.0248C68.1559 24.1059 69.3101 23.3931 70.5702 22.9287C71.905 22.434 73.3184 22.1854 74.7418 22.1948C76.206 22.186 77.6604 22.4344 79.0389 22.9287C80.2909 23.3575 81.4448 24.032 82.4332 24.9127L78.3872 29.7947C78.0233 29.3199 77.5475 28.9429 77.0023 28.6974C76.4168 28.4428 75.784 28.3154 75.1457 28.3236C74.6135 28.3198 74.0856 28.419 73.5911 28.6158C73.1167 28.8062 72.6876 29.0945 72.3318 29.4618C71.9603 29.8522 71.6726 30.3147 71.4866 30.8207C71.2764 31.3844 71.1728 31.9823 71.1812 32.5839C71.1707 33.177 71.2792 33.7662 71.5002 34.3166C71.6996 34.8069 71.9911 35.2544 72.359 35.6347C72.7157 36.0009 73.1445 36.2889 73.6183 36.4807C74.1041 36.6742 74.6227 36.7722 75.1457 36.7694C75.8262 36.7883 76.4996 36.6266 77.0974 36.3006C77.5989 36.0228 78.0379 35.6446 78.3872 35.1897L82.4196 40.0241C81.4823 40.9436 80.3694 41.6646 79.1475 42.144C76.3855 43.1841 73.3427 43.1998 70.5702 42.1882C69.3086 41.7141 68.1545 40.9922 67.1759 40.0649C66.2066 39.1385 65.4343 38.0257 64.9052 36.7932C64.3367 35.4591 64.0534 34.0206 64.0736 32.5703Z" fill="white"/>
<path d="M96.499 34.928H91.1259V42.4022H84.524V22.7485H91.0953V29.4073H96.4684V22.7485H103.094V42.4022H96.499V34.928Z" fill="white"/>
<path d="M20.739 59.9901V54.534H15.2029V59.9901H12.5384V47.2671H15.2029V52.3325H20.739V47.2671H23.4035V59.9901H20.739Z" fill="white"/>
<path d="M41.9362 53.5692C41.9618 54.7809 41.6928 55.9807 41.1521 57.0651C40.6532 58.0436 39.8698 58.8479 38.9051 59.3719C37.8592 59.9206 36.6914 60.1953 35.5108 60.1703C33.5105 60.1703 31.9446 59.5814 30.8131 58.4037C29.6817 57.2259 29.116 55.6144 29.116 53.5692C29.116 51.5308 29.6817 49.9386 30.8131 48.7926C31.9446 47.6465 33.5172 47.0746 35.5312 47.0769C37.5474 47.0769 39.1212 47.6545 40.2526 48.8096C41.384 49.9647 41.9452 51.5512 41.9362 53.5692ZM39.2207 53.5692C39.2207 52.1967 38.896 51.1209 38.2466 50.3418C37.9111 49.9503 37.4903 49.6413 37.0165 49.4387C36.5427 49.2361 36.0287 49.1452 35.5142 49.1731C34.9964 49.1423 34.4784 49.2307 34 49.4315C33.5216 49.6323 33.0956 49.9402 32.7547 50.3316C32.103 51.1062 31.7783 52.1854 31.7805 53.5692C31.7828 54.9531 32.1143 56.0538 32.775 56.8714C33.1241 57.2484 33.5467 57.5497 34.0167 57.7567C34.4867 57.9637 34.9941 58.072 35.5076 58.0748C36.0211 58.0777 36.5297 57.9751 37.002 57.7734C37.4743 57.5716 37.9002 57.2751 38.2534 56.902C38.8983 56.1206 39.2207 55.0097 39.2207 53.5692Z" fill="white"/>
<path d="M52.9302 60.1702C51.1833 60.1702 49.8437 59.7433 48.9114 58.8894C47.9791 58.0355 47.5141 56.8136 47.5163 55.2237V47.2671H50.1808V55.013C50.1808 56.0186 50.4196 56.7819 50.897 57.3028C51.1719 57.5757 51.5018 57.7866 51.8648 57.9214C52.2278 58.0561 52.6153 58.1117 53.0015 58.0842C53.404 58.1108 53.8076 58.0515 54.1856 57.9104C54.5636 57.7693 54.9074 57.5494 55.1942 57.2655C55.7078 56.7219 55.9635 55.9416 55.9613 54.9247V47.2671H58.6224V55.081C58.6224 56.6913 58.1268 57.9449 57.1289 58.8181C56.131 59.6912 54.7359 60.1702 52.9302 60.1702Z" fill="white"/>
<path d="M75.0472 56.3314C75.0759 56.8859 74.9639 57.4386 74.7218 57.9382C74.4796 58.4377 74.1152 58.8679 73.6624 59.1886C72.7391 59.8476 71.3814 60.1772 69.5893 60.1772C67.96 60.1772 66.6815 59.8884 65.7537 59.3109C65.2909 59.0177 64.8936 58.6318 64.587 58.1775C64.2803 57.7232 64.0708 57.2104 63.9717 56.6711L66.5446 56.2465C66.6065 56.5473 66.7286 56.8324 66.9036 57.0846C67.0786 57.3369 67.3029 57.551 67.5629 57.7141C68.2095 58.0526 68.9352 58.211 69.6639 58.1728C71.524 58.1728 72.4529 57.6065 72.4506 56.4741C72.4632 56.1462 72.3489 55.8262 72.1316 55.5806C71.8788 55.319 71.5701 55.1181 71.2287 54.9928C70.5001 54.7458 69.7534 54.5561 68.9953 54.4255C68.3258 54.2791 67.6642 54.0988 67.013 53.8853C66.6581 53.7623 66.3169 53.6029 65.9947 53.4097C65.7017 53.2293 65.4421 52.9994 65.2276 52.7302C65.0102 52.4588 64.8435 52.1504 64.7355 51.8197C64.613 51.4308 64.5534 51.0248 64.5589 50.6171C64.5359 50.1034 64.6426 49.5923 64.8693 49.1309C65.0959 48.6695 65.4351 48.2727 65.8556 47.9773C66.7177 47.3658 67.9736 47.0601 69.6232 47.0601C71.2072 47.0601 72.3895 47.3069 73.1702 47.8007C73.9611 48.2933 74.4736 49.1087 74.701 50.2468L72.1214 50.5865C72.0196 50.0862 71.7306 49.6438 71.3135 49.3499C70.786 49.0413 70.1787 48.897 69.5689 48.9354C67.9566 48.9354 67.1488 49.4382 67.1488 50.4506C67.1371 50.7431 67.2284 51.0305 67.4067 51.2626C67.6141 51.5008 67.8762 51.685 68.1704 51.7993C68.8329 52.0405 69.5141 52.2268 70.207 52.3565C71.0987 52.5229 71.9751 52.7627 72.8274 53.0733C73.2867 53.2516 73.7099 53.5117 74.0765 53.8411C74.384 54.1345 74.6239 54.4917 74.7791 54.8875C74.9622 55.3466 75.0533 55.8372 75.0472 56.3314Z" fill="white"/>
<path d="M80.7021 59.9901V47.2671H90.6982V49.3259H83.3632V52.5228H90.1517V54.5816H83.3632V57.9313H91.0648V59.9901H80.7021Z" fill="white"/>
<path d="M93.9499 46.6386H93.3355V48.3203H93.081V46.6386H92.4836V46.4246H93.9669L93.9499 46.6386Z" fill="white"/>
<path d="M96.2173 46.4246V48.3203H95.9933V46.8663C95.9933 46.8459 95.9933 46.8255 95.9933 46.8017L95.3416 47.9908C95.3336 48.0083 95.3207 48.0231 95.3044 48.0334C95.2881 48.0437 95.2692 48.0489 95.2499 48.0485H95.199C95.1793 48.0492 95.1598 48.044 95.1429 48.0338C95.126 48.0235 95.1125 48.0086 95.104 47.9908L94.4421 46.7983C94.4421 46.8459 94.4421 46.8866 94.4421 46.9274V48.3203H94.218V46.4246H94.4047C94.4226 46.4206 94.4412 46.4206 94.459 46.4246C94.459 46.4246 94.4828 46.4246 94.4964 46.462L95.1515 47.6307L95.182 47.6952L95.2092 47.7666L95.2363 47.6952C95.2456 47.6716 95.2569 47.6488 95.2703 47.6273L95.9118 46.462C95.9184 46.446 95.9304 46.4327 95.9457 46.4246C95.9636 46.4206 95.9822 46.4206 96 46.4246H96.2173Z" fill="white"/>
<path d="M165.627 58.0504C165.509 57.9318 165.369 57.8379 165.214 57.7743C165.06 57.7107 164.894 57.6787 164.727 57.6801H149.429C148.644 57.6865 147.866 57.5292 147.145 57.2181C146.455 56.917 145.828 56.4895 145.295 55.9577C144.765 55.4228 144.341 54.7922 144.046 54.0993C143.733 53.377 143.574 52.5969 143.581 51.8095V44.6275C143.581 43.9837 143.496 43.3427 143.326 42.7216V41.5495C143.332 40.531 143.184 39.5174 142.888 38.5429C142.601 37.5964 142.176 36.6977 141.626 35.876C141.074 35.0555 140.409 34.3176 139.65 33.6847C137.451 31.8501 135.937 31.9283 133.415 31.3575C131.481 30.8859 129.708 29.9053 128.28 28.5173C127.071 27.1992 125.904 25.2763 125.048 22.4531C125.048 22.4531 123.528 17.5337 122.333 13.8782C122.412 12.9584 122.383 12.0324 122.245 11.1196C124.325 9.55339 127.122 8.85014 128.191 6.06771C128.213 6.01013 128.223 5.94854 128.22 5.88696C128.216 5.82539 128.2 5.76522 128.172 5.71038C128.144 5.65555 128.104 5.60729 128.056 5.56876C128.008 5.53023 127.952 5.50229 127.893 5.48677C126.1 5.03832 123.928 4.8073 121.104 7.31454C118.877 9.28839 118.972 8.5138 118.979 8.39489C118.979 7.06653 119.132 2.1234 117.421 0.203904C116.423 -0.917218 115.48 2.88101 115.5 3.90361C115.612 10.2091 109.608 12.1999 107.289 16.732C107.35 16.7693 108.308 17.7002 109.54 17.1838C109.54 17.1838 110.3 16.8679 110.466 17.442C110.044 17.8243 109.544 18.1106 109 18.2812C108.704 18.3271 108.401 18.2955 108.121 18.1894H108.08C107.895 18.1186 107.718 18.0262 107.554 17.9142C107.507 17.8837 107.459 17.8531 107.412 17.8157L107.35 17.7648L107.378 18.0467C107.379 18.3344 107.438 18.6189 107.552 18.883C107.666 19.1471 107.832 19.3854 108.04 19.5835C108.249 19.7816 108.495 19.9354 108.764 20.0356C109.034 20.1359 109.321 20.1804 109.608 20.1667C109.836 20.1661 110.064 20.1399 110.287 20.0885C110.324 20.0885 111.169 20.007 112.418 19.0252L112.717 18.7942C113.275 18.3286 113.976 18.0684 114.702 18.0569C115.741 18.9674 116.647 23.2141 116.756 27.5049L111.749 32.533L110.925 33.3178C110.685 33.5308 110.494 33.7925 110.363 34.0854C110.233 34.3783 110.166 34.6957 110.168 35.0165C110.171 35.3275 110.229 35.6356 110.337 35.9269C110.524 36.4264 111.308 36.4773 111.661 36.141L112.948 34.8976C112.948 34.8976 112.965 34.8976 112.975 34.8738L113.134 34.7141L113.779 34.0924C113.812 34.0606 113.842 34.0253 113.867 33.9871L116.783 31.0891V33.3823C116.784 34.1433 116.832 34.9034 116.926 35.6586L113.776 38.8215L112.89 39.7116L112.866 39.7354L112.805 39.7965L112.754 39.8577C112.371 40.3128 112.169 40.8935 112.187 41.4884C112.185 41.7807 112.232 42.0712 112.326 42.3479C112.379 42.5004 112.48 42.6318 112.613 42.7225C112.746 42.8131 112.905 42.8581 113.066 42.8507C113.165 42.8544 113.263 42.8376 113.355 42.8014C113.447 42.7651 113.53 42.7102 113.599 42.6401L114.115 42.1237L117.442 38.7841L117.52 39.2088C117.667 39.9718 117.883 40.72 118.165 41.4442L118.192 41.5156C118.209 41.5597 118.229 41.6005 118.246 41.6447L118.283 41.7296C118.368 41.93 118.453 42.1237 118.541 42.3106C118.572 42.3785 118.602 42.4396 118.633 42.5008L118.674 42.5891L118.901 43.0478L119.051 43.323C119.125 43.4589 119.2 43.5947 119.275 43.7238C119.349 43.8529 119.373 43.8971 119.424 43.9786L119.645 44.3422L119.665 44.3727L119.794 44.5698C119.869 44.6887 119.947 44.7974 120.021 44.9095L120.154 45.0998C120.239 45.2187 120.323 45.3308 120.405 45.4395L120.503 45.5686L120.615 45.7113V57.6903H112.123C111.147 57.667 110.179 57.8754 109.299 58.2984C109.057 58.4195 108.829 58.5677 108.62 58.7401C108.497 58.8278 108.405 58.9528 108.359 59.0966C108.312 59.2404 108.314 59.3953 108.362 59.5385C108.518 59.9699 109.126 60.2621 109.876 60.2621H131.083C131.386 60.2661 131.687 60.2079 131.966 60.091C132.246 59.9741 132.499 59.8011 132.709 59.5826C132.927 59.3705 133.099 59.1162 133.216 58.8353C133.333 58.5544 133.391 58.2527 133.388 57.9485V53.4946C134.354 54.1112 135.285 54.7803 136.178 55.499C137.159 56.2872 138.147 57.1569 139.114 58.0946C139.818 58.7636 140.637 59.2999 141.531 59.6778C142.43 60.0524 143.394 60.2441 144.368 60.2417H164.734C164.983 60.2402 165.227 60.1682 165.437 60.0342C165.647 59.9002 165.815 59.7095 165.922 59.4841L165.946 59.4196C166.022 59.1839 166.033 58.9318 165.977 58.6905C165.921 58.4492 165.799 58.2278 165.627 58.0504ZM119.275 58.5159C119.14 58.5922 119.009 58.6761 118.884 58.7673C118.798 58.8147 118.726 58.8846 118.676 58.9694C118.625 59.0543 118.599 59.1511 118.599 59.2497C118.599 59.3483 118.625 59.4451 118.676 59.53C118.726 59.6148 118.798 59.6847 118.884 59.7321H116.043C116.22 59.5141 116.317 59.2418 116.317 58.9609C116.317 58.68 116.22 58.4077 116.043 58.1897H120.025C119.765 58.2759 119.514 58.385 119.275 58.5159ZM116.118 14.0379C115.968 14.1165 115.802 14.1592 115.633 14.1627C115.464 14.1663 115.297 14.1305 115.144 14.0583L114.125 13.5758C114.111 13.5686 114.098 13.5575 114.089 13.5437C114.08 13.53 114.075 13.5141 114.075 13.4977C114.074 13.481 114.078 13.4645 114.086 13.45C114.095 13.4356 114.107 13.4239 114.122 13.4162L114.998 12.9303C115.186 12.8258 115.397 12.7708 115.612 12.7707C115.813 12.7716 116.01 12.8193 116.189 12.91L117.082 13.3686C117.096 13.3761 117.108 13.3873 117.116 13.4011C117.125 13.4149 117.129 13.4307 117.129 13.4467C117.129 13.4628 117.125 13.4786 117.116 13.4924C117.108 13.5061 117.096 13.5174 117.082 13.5249L116.118 14.0379ZM115.585 38.8589C115.389 38.6659 115.132 38.5461 114.859 38.5191L118.47 34.8908V26.9953C118.49 26.5406 118.685 26.1112 119.013 25.7965C119.342 25.4818 119.779 25.3062 120.233 25.3062C120.688 25.3062 121.125 25.4818 121.454 25.7965C121.782 26.1112 121.977 26.5406 121.997 26.9953V33.1513C121.995 33.2517 121.974 33.3507 121.933 33.4424C121.892 33.5341 121.833 33.6166 121.759 33.6847L115.921 39.5451C115.887 39.2857 115.769 39.0447 115.585 38.8589ZM112.53 18.4986L112.231 18.7296C111.071 19.6435 110.287 19.7216 110.293 19.7216H110.256C109.955 19.8067 109.639 19.8268 109.329 19.7805C109.02 19.7343 108.724 19.6227 108.46 19.4532C108.109 19.1901 107.868 18.8066 107.782 18.3763C108.769 18.8927 109.458 18.7432 110.558 17.8463L111.312 17.228C111.468 17.1261 111.6 17.0309 111.722 16.946C112.185 16.5804 112.718 16.3123 113.287 16.1578L113.464 16.1069C114.258 15.8962 116.22 15.3696 116.62 14.1534L117.241 13.8137C117.31 13.7768 117.368 13.722 117.408 13.655C117.448 13.5879 117.469 13.5113 117.469 13.4332C117.469 13.355 117.448 13.2784 117.408 13.2113C117.368 13.1443 117.31 13.0895 117.241 13.0526L116.345 12.594C116.134 12.4874 115.903 12.4282 115.666 12.4207C115.592 12.2375 115.546 12.0438 115.531 11.8466C115.51 11.6156 115.592 11.5476 115.619 11.5272C115.754 11.4743 115.898 11.4494 116.043 11.4541C116.187 11.4587 116.33 11.4929 116.461 11.5544C118.042 12.0572 119.953 11.9553 121.837 11.269L121.902 11.2453H121.919C122.066 12.2842 122.066 13.3387 121.919 14.3776C121.325 18.1894 117.167 17.989 115.385 17.7274C114.878 17.6379 114.358 17.6606 113.862 17.7939C113.365 17.9271 112.904 18.1677 112.51 18.4986H112.53ZM116.552 30.6101L113.837 33.328C113.797 33.0717 113.678 32.8341 113.497 32.6485C113.307 32.4435 113.06 32.3003 112.788 32.2374L116.559 28.4494L116.552 30.6101ZM120.459 44.6139C120.388 44.5086 120.313 44.3999 120.239 44.2742L120.116 44.084L120.096 44.0534C120.025 43.9413 119.953 43.8258 119.882 43.7137L119.733 43.4656C119.661 43.3399 119.59 43.2108 119.519 43.075C119.448 42.9391 119.424 42.9017 119.376 42.8066C119.329 42.7114 119.227 42.5144 119.152 42.3649L119.112 42.2766C119.081 42.2154 119.051 42.1543 119.023 42.0931C118.939 41.9097 118.857 41.7194 118.772 41.5258L118.657 41.254C118.472 40.7797 118.318 40.294 118.195 39.7999C118.589 40.0335 119.032 40.173 119.488 40.2076L119.787 40.2246H119.902H120.354H120.452H120.843L121.023 40.2076L121.362 40.1702L121.576 40.143L121.939 40.0819C122.014 40.0819 122.088 40.0683 122.163 40.0411C122.85 39.9057 123.525 39.7171 124.183 39.4772C124.293 39.4365 124.412 39.4209 124.529 39.4315C124.646 39.4421 124.76 39.4786 124.862 39.5383C124.959 39.5975 125.043 39.6774 125.106 39.7726C125.17 39.8677 125.211 39.9756 125.228 40.0887C125.333 40.8191 125.469 41.93 125.517 43.0851C125.517 43.2108 125.517 43.3365 125.517 43.4622V44.0296C125.517 44.1825 125.517 44.332 125.5 44.4814V44.5766C125.5 44.7227 125.479 44.8687 125.466 45.0114V45.0726C125.466 45.2017 125.435 45.3308 125.418 45.4565V45.5176C125.398 45.6501 125.371 45.7758 125.343 45.8981L125.327 45.9763C125.296 46.0952 125.265 46.2141 125.218 46.3534C125.17 46.4927 125.147 46.5504 125.096 46.6693V46.6931C125.056 46.7805 125.01 46.8646 124.957 46.9445L124.926 46.9921C124.876 47.0644 124.821 47.1326 124.76 47.1959C124.305 47.6546 123.402 47.7327 122.577 46.9955L122.058 46.5334C122.014 46.4893 121.966 46.4451 121.919 46.3942L121.82 46.2956C121.766 46.2413 121.712 46.1801 121.651 46.1122L121.549 46.0035C121.471 45.9185 121.389 45.8234 121.308 45.7283L121.25 45.6603C121.148 45.538 121.04 45.4055 120.931 45.2628L120.839 45.1405C120.758 45.0318 120.676 44.9265 120.595 44.8008L120.459 44.6139ZM124.729 57.6903H121.135V46.3126L121.155 46.3296C121.489 46.7474 121.877 47.1188 122.309 47.4337C122.417 47.523 122.531 47.6058 122.648 47.6817C123.311 48.1249 124 48.5265 124.712 48.8844L124.729 57.6903ZM125.238 49.1086L128.789 50.634V57.6903H125.221L125.238 49.1086ZM165.46 59.2633C165.396 59.4023 165.294 59.5201 165.165 59.6031C165.036 59.6861 164.887 59.7308 164.734 59.7321H144.368C143.462 59.7346 142.565 59.5568 141.728 59.2089C140.89 58.8553 140.124 58.3522 139.467 57.7243C138.489 56.7798 137.492 55.8965 136.497 55.1015C135.469 54.2743 134.391 53.5118 133.269 52.8185L132.875 52.5943V57.9519C132.877 58.1877 132.831 58.4215 132.742 58.6397C132.653 58.8579 132.521 59.0562 132.355 59.2233C132.189 59.3904 131.991 59.5228 131.773 59.6131C131.556 59.7033 131.322 59.7496 131.087 59.7491H126.043C126.211 59.53 126.3 59.2608 126.297 58.9847C126.3 58.7065 126.211 58.4352 126.043 58.2135H129.281V43.6015C129.271 42.8123 129.427 42.0299 129.739 41.3049C130.041 40.6115 130.471 39.9819 131.009 39.45C131.547 38.917 132.18 38.4895 132.875 38.1896C133.596 37.8791 134.372 37.7218 135.156 37.7275H136.175C137.096 37.7228 138.009 37.9042 138.859 38.2609C139.676 38.607 140.419 39.1064 141.049 39.732C141.673 40.3685 142.175 41.1148 142.529 41.9334C142.891 42.7851 143.076 43.7019 143.072 44.6275V51.8095C143.065 52.6669 143.237 53.5163 143.577 54.3032C144.22 55.8269 145.425 57.0439 146.941 57.7005C147.727 58.0369 148.574 58.208 149.429 58.2033H164.727C164.828 58.2012 164.928 58.2201 165.021 58.2587C165.113 58.2973 165.197 58.3548 165.267 58.4275C165.372 58.5361 165.445 58.6713 165.479 58.8185C165.514 58.9658 165.507 59.1195 165.46 59.2633Z" fill="white"/>
</svg>
