<svg width="191" height="51" viewBox="0 0 191 51" fill="none" xmlns="http://www.w3.org/2000/svg">
<path d="M25.5475 4.3679e-05C15.2296 -0.0189863 5.91705 6.18168 1.95534 15.7087C-2.00637 25.2357 0.163617 36.2113 7.45273 43.5139C14.7418 50.8165 25.7134 53.0068 35.2477 49.0627C44.7821 45.1187 51 35.8176 51 25.4997C51.0062 18.743 48.3281 12.2606 43.5549 7.47851C38.7816 2.69641 32.3041 0.00634368 25.5475 5.3679e-05L25.5475 4.3679e-05ZM17 39.9198C17 40.2552 17 40.375 16.572 40.375H11.053C10.6926 40.375 10.625 40.2313 10.625 39.8959C10.625 36.5179 10.625 33.116 10.625 29.738C10.625 26.3601 10.625 23.0061 10.625 19.6521C10.625 19.2688 10.625 19.125 11.0981 19.125C12.9002 19.125 14.6798 19.125 16.4819 19.125C16.7973 19.125 16.9324 19.125 16.9324 19.6042C16.9324 26.3441 16.9399 33.108 16.955 39.8959L17 39.9198ZM14.2499 17C11.9028 17 9.99999 15.0972 9.99999 12.75C9.99999 10.4028 11.9028 8.50003 14.2499 8.50003C15.3817 8.50003 16.4668 8.95142 17.2645 9.7542C18.0623 10.557 18.507 11.6448 18.5 12.7766C18.5003 13.9083 18.0435 14.9922 17.2334 15.7824C16.4232 16.5726 15.3282 17.0021 14.1968 16.9735L14.2499 17ZM42.5 39.8607C42.5 40.2815 42.3522 40.375 41.9336 40.375H36.1471C35.7039 40.375 35.5808 40.2581 35.5808 39.8607C35.5808 36.4475 35.5808 33.0576 35.5808 29.6678C35.6045 28.7812 35.5219 27.8949 35.3346 27.026C35.1666 25.6121 33.8493 24.5785 32.3551 24.6882C31.8584 24.6758 31.362 24.7229 30.8777 24.8284C29.4931 25.202 28.5066 26.3634 28.4154 27.7274C28.2956 28.3993 28.2379 29.0798 28.243 29.7613C28.243 33.0576 28.243 36.3539 28.243 39.6503C28.243 40.188 28.243 40.188 27.6521 40.188H21.8163C21.3977 40.188 21.25 40.0711 21.25 39.6737C21.25 33.1044 21.25 26.5584 21.25 19.9891C21.25 19.4748 21.25 19.4748 21.8163 19.4748H27.3566C27.7259 19.4748 27.8737 19.5917 27.8491 19.9657C27.8491 20.6905 27.8491 21.4386 27.8491 22.3036C28.5549 21.3234 29.5014 20.521 30.6069 19.9657C31.8867 19.2852 33.3607 19.0069 34.8175 19.1709C35.7052 19.2251 36.5866 19.3502 37.4522 19.5449C39.7664 20.1382 41.4944 21.9713 41.8598 24.2206C42.1921 25.4984 42.3656 26.8087 42.3769 28.1248C42.4753 31.9822 42.4261 35.9098 42.4507 39.8373L42.5 39.8607Z" fill="white"/>
<path d="M95.5 0C109.583 0 121 11.4167 121 25.5C121 39.5833 109.583 51 95.5 51C81.4167 51 70 39.5833 70 25.5C70 11.4167 81.4167 0 95.5 0ZM95.5093 8.5H88.4671L87.9354 8.52273C86.697 8.60184 85.4761 8.86312 84.3126 9.29891C83.1683 9.7263 82.1318 10.3985 81.2759 11.2683C80.4435 12.1251 79.8078 13.1521 79.4129 14.2781C78.9045 15.6017 78.6333 17.0041 78.6118 18.4213C78.6118 18.7807 78.6076 19.0908 78.6009 19.3906L78.5916 19.748C78.5626 20.7609 78.5114 21.8366 78.5016 24.5135L78.5026 28.5412C78.5072 29.9132 78.5197 30.6509 78.5542 31.4161L78.5704 31.7477C78.5821 31.9724 78.5958 32.2071 78.6118 32.4672C78.6334 33.8844 78.9045 35.2868 79.4129 36.6104C80.2782 38.9112 82.0986 40.7267 84.4058 41.5896C85.733 42.0966 87.1392 42.3671 88.5603 42.3885C90.3568 42.3885 90.9233 42.4922 95.1209 42.4996L97.7293 42.4994L98.4031 42.4983C99.6632 42.4953 100.421 42.4872 101.095 42.4652L101.426 42.453C101.81 42.4373 102.188 42.4164 102.645 42.3885C104.066 42.3647 105.471 42.0944 106.799 41.5896C107.928 41.1958 108.958 40.5618 109.817 39.7317C110.689 38.8782 111.364 37.8445 111.792 36.7033C112.246 35.4129 112.485 34.0574 112.5 32.6902V18.6443L112.477 18.114C112.398 16.879 112.136 15.6614 111.699 14.5011C110.803 12.2199 108.994 10.415 106.706 9.52187C105.376 9.02588 103.971 8.75583 102.552 8.72296H95.5093L95.5093 8.5ZM95.5093 11.5656V11.6027L97.5997 11.6033L98.2607 11.6042C99.4963 11.6067 100.236 11.6134 100.895 11.6318L101.221 11.6419C101.597 11.655 101.969 11.6724 102.421 11.6956C103.504 11.7049 104.576 11.9062 105.588 12.2902C107.07 12.8756 108.243 14.0455 108.83 15.523C109.215 16.5322 109.417 17.6017 109.426 18.6814V32.4672L109.41 32.9292C109.355 33.8513 109.16 34.7606 108.83 35.6257C108.559 36.3719 108.119 37.0458 107.544 37.5951C107.026 38.1503 106.39 38.5821 105.681 38.8585C104.669 39.2424 103.597 39.4437 102.514 39.453H88.6907L88.2274 39.4373C87.3028 39.3825 86.391 39.1875 85.5236 38.8585C84.0292 38.2927 82.8492 37.116 82.2819 35.6257C81.8969 34.6165 81.6951 33.547 81.6858 32.4672V18.6814L81.7015 18.2194C81.7565 17.2973 81.9519 16.388 82.2819 15.523C82.5591 14.8167 82.992 14.1817 83.5488 13.665C84.059 13.0565 84.7028 12.5734 85.4304 12.253C86.4424 11.8691 87.5148 11.6678 88.5975 11.6585C88.9967 11.6585 89.3327 11.6542 89.659 11.6475L89.9841 11.6401C91.0704 11.613 92.249 11.5656 95.5093 11.5656L95.5093 11.5656ZM95.5 17C90.8056 17 87 20.8056 87 25.5C87 30.1944 90.8056 34 95.5 34C100.194 34 104 30.1944 104 25.5C104 20.8056 100.194 17 95.5 17ZM95.5 19.9777C98.5499 19.9777 101.022 22.4501 101.022 25.5C101.022 28.5499 98.5499 31.0223 95.5 31.0223C92.4501 31.0223 89.9777 28.5499 89.9777 25.5C89.9777 22.4501 92.4501 19.9777 95.5 19.9777ZM104 14.875C102.826 14.875 101.875 15.8264 101.875 17C101.875 18.1736 102.826 19.125 104 19.125C105.174 19.125 106.125 18.1736 106.125 17C106.125 15.8264 105.174 14.875 104 14.875Z" fill="white"/>
<path d="M165.182 0.0960576C158.442 0.108061 151.988 2.82644 147.26 7.64427C142.532 12.4621 139.924 18.9782 140.019 25.7376C139.513 38.7197 149.234 49.8242 162.134 51V32.8471H155.046V25.7376H162.134V20.998C162.134 14.9549 165.655 11.6608 171.042 11.6608C172.803 11.621 174.564 11.7161 176.311 11.9452V18.6755H172.105C169.175 18.6755 169.223 19.6709 169.223 21.7089V25.785H175.578L174.681 32.8945H169.223V51C182.505 49.0037 191.982 37.039 190.919 23.6105C189.855 10.1819 178.612 -0.13134 165.182 0.00126439V0.0960576Z" fill="white"/>
</svg>
