<svg width="31" height="26" viewBox="0 0 31 26" fill="none" xmlns="http://www.w3.org/2000/svg">
<path d="M30.2308 6.05769C30.1154 5.94231 29.9423 5.82692 29.7692 5.82692H5.25L3.75 0.576923C3.69231 0.230769 3.46154 0 3.11538 0L0.519231 0.173077C0.230769 0.173077 0 0.461538 0 0.807692C0 1.09615 0.288462 1.32692 0.576923 1.32692C0.576923 1.32692 0.576923 1.32692 0.634615 1.32692L2.71154 1.21154L7.44231 17.7692L7.67308 18.6923C7.73077 18.9231 7.96154 19.0962 8.25 19.0962H26.8846C27.1731 19.0962 27.4038 18.9231 27.4615 18.6346L30.3462 6.57692C30.4038 6.40385 30.3462 6.23077 30.2308 6.05769ZM26.4231 17.9423H8.65385L8.59615 17.7692L5.53846 6.98077H29.1923L26.4231 17.9423ZM11.0192 20.25C9.46154 20.25 8.19231 21.5192 8.19231 23.0769C8.19231 24.6346 9.46154 25.9038 11.0192 25.9038C12.5769 25.9038 13.8462 24.6923 13.8462 23.0769C13.8462 21.5192 12.5769 20.25 11.0192 20.25ZM11.0192 24.75C10.0962 24.75 9.34615 24 9.34615 23.0769C9.34615 22.1538 10.0962 21.4038 11.0192 21.4038C11.9423 21.4038 12.6923 22.1538 12.6923 23.0769C12.6923 24 11.9423 24.75 11.0192 24.75ZM23.7115 20.25C22.1538 20.25 20.8846 21.5192 20.8846 23.0769C20.8846 24.6346 22.1538 25.9038 23.7115 25.9038C25.2692 25.9038 26.5385 24.6346 26.5385 23.0769C26.4808 21.5192 25.2115 20.25 23.7115 20.25ZM23.7115 24.75C22.7885 24.75 22.0385 24 22.0385 23.0769C22.0385 22.1538 22.7885 21.4038 23.7115 21.4038C24.6346 21.4038 25.3846 22.1538 25.3846 23.0769C25.3846 24 24.5769 24.75 23.7115 24.75Z" fill="#24272A"/>
</svg>
