<svg width="137" height="137" viewBox="0 0 137 137" fill="none" xmlns="http://www.w3.org/2000/svg">
<g clip-path="url(#clip0_160_141)">
<path d="M68.4867 137.261C106.042 137.261 136.487 106.817 136.487 69.2612C136.487 31.7059 106.042 1.26123 68.4867 1.26123C30.9313 1.26123 0.486694 31.7059 0.486694 69.2612C0.486694 106.817 30.9313 137.261 68.4867 137.261Z" fill="#8DB7E1"/>
<path d="M89.2167 42.6411H48.0967L35.1867 106.531H101.797L89.2167 42.6411Z" fill="white"/>
<path d="M68.4867 70.7313C68.8208 69.2499 69.6498 67.9267 70.8368 66.9796C72.0238 66.0325 73.4981 65.5181 75.0167 65.5213C75.8719 65.5199 76.7191 65.6874 77.5095 66.0141C78.2999 66.3408 79.0181 66.8203 79.6229 67.4251C80.2276 68.0298 80.7071 68.748 81.0338 69.5384C81.3605 70.3289 81.528 71.176 81.5267 72.0313C81.5267 72.0313 82.0967 75.5213 75.9567 80.8513L68.4867 87.5913L61.0267 80.8513C54.8867 75.5213 55.4567 72.0313 55.4567 72.0313C55.4553 71.176 55.6228 70.3289 55.9495 69.5384C56.2762 68.748 56.7557 68.0298 57.3605 67.4251C57.9652 66.8203 58.6834 66.3408 59.4738 66.0141C60.2643 65.6874 61.1114 65.5199 61.9667 65.5213C63.4827 65.519 64.9542 66.0341 66.1379 66.9814C67.3215 67.9287 68.1466 69.2515 68.4767 70.7313" fill="#EE8922"/>
<path d="M89.2167 42.6411H48.0967L35.1867 106.531H101.797L89.2167 42.6411Z" stroke="#613393" stroke-width="4" stroke-linecap="round" stroke-linejoin="round"/>
<path d="M60.6667 50.7912V37.7112C60.6667 35.5894 61.5095 33.5546 63.0098 32.0543C64.5101 30.554 66.545 29.7112 68.6667 29.7112C70.7884 29.7112 72.8232 30.554 74.3235 32.0543C75.8238 33.5546 76.6667 35.5894 76.6667 37.7112V50.7912" stroke="#613393" stroke-width="4" stroke-linecap="round" stroke-linejoin="round"/>
<path d="M68.4867 70.7313C68.8208 69.2499 69.6498 67.9267 70.8368 66.9796C72.0238 66.0325 73.4981 65.5181 75.0167 65.5213C75.8719 65.5199 76.7191 65.6874 77.5095 66.0141C78.2999 66.3408 79.0181 66.8203 79.6229 67.4251C80.2276 68.0298 80.7071 68.748 81.0338 69.5384C81.3605 70.3289 81.528 71.176 81.5267 72.0313C81.5267 72.0313 82.0967 75.5213 75.9567 80.8513L68.4867 87.5913L61.0267 80.8513C54.8867 75.5213 55.4567 72.0313 55.4567 72.0313C55.4553 71.176 55.6228 70.3289 55.9495 69.5384C56.2762 68.748 56.7557 68.0298 57.3605 67.4251C57.9652 66.8203 58.6834 66.3408 59.4738 66.0141C60.2643 65.6874 61.1114 65.5199 61.9667 65.5213C63.4827 65.519 64.9542 66.0341 66.1379 66.9814C67.3215 67.9287 68.1466 69.2515 68.4767 70.7313" stroke="#613393" stroke-width="4" stroke-linecap="round" stroke-linejoin="round"/>
<path d="M68.4867 70.7313C68.8208 69.2499 69.6498 67.9267 70.8368 66.9796C72.0238 66.0325 73.4981 65.5181 75.0167 65.5213C75.8719 65.5199 76.7191 65.6874 77.5095 66.0141C78.2999 66.3408 79.0181 66.8203 79.6229 67.4251C80.2276 68.0298 80.7071 68.748 81.0338 69.5384C81.3605 70.3289 81.528 71.176 81.5267 72.0313C81.5267 72.0313 82.0967 75.5213 75.9567 80.8513L68.4867 87.5913L61.0267 80.8513C54.8867 75.5213 55.4567 72.0313 55.4567 72.0313C55.4553 71.176 55.6228 70.3289 55.9495 69.5384C56.2762 68.748 56.7557 68.0298 57.3605 67.4251C57.9652 66.8203 58.6834 66.3408 59.4738 66.0141C60.2643 65.6874 61.1114 65.5199 61.9667 65.5213C63.4827 65.519 64.9542 66.0341 66.1379 66.9814C67.3215 67.9287 68.1466 69.2515 68.4767 70.7313" stroke="#613393" stroke-width="4" stroke-linecap="round" stroke-linejoin="round"/>
</g>
<defs>
<clipPath id="clip0_160_141">
<rect width="136" height="136" fill="white" transform="translate(0.666687 0.981201)"/>
</clipPath>
</defs>
</svg>
