<svg width="136" height="137" viewBox="0 0 136 137" fill="none" xmlns="http://www.w3.org/2000/svg">
<g clip-path="url(#clip0_160_285)">
<path d="M68 136.906C105.555 136.906 136 106.461 136 68.9055C136 31.3502 105.555 0.905518 68 0.905518C30.4446 0.905518 0 31.3502 0 68.9055C0 106.461 30.4446 136.906 68 136.906Z" fill="#EE8922"/>
<path d="M68.25 50.8056C71.5195 50.8056 74.17 48.1551 74.17 44.8856C74.17 41.616 71.5195 38.9656 68.25 38.9656C64.9805 38.9656 62.33 41.616 62.33 44.8856C62.33 48.1551 64.9805 50.8056 68.25 50.8056Z" fill="white"/>
<path d="M96.25 96.8456C105.7 96.8456 107.55 88.7056 107.92 85.5156C107.937 85.357 107.92 85.1966 107.871 85.0448C107.822 84.893 107.742 84.7532 107.635 84.6345C107.529 84.5157 107.398 84.4206 107.253 84.3554C107.107 84.2901 106.95 84.2561 106.79 84.2556H29.21C29.0505 84.2561 28.8928 84.2901 28.7473 84.3554C28.6017 84.4206 28.4715 84.5157 28.365 84.6345C28.2585 84.7532 28.1781 84.893 28.129 85.0448C28.0799 85.1966 28.0632 85.357 28.08 85.5156C28.45 88.7056 30.3 96.8456 39.75 96.8456H96.25Z" fill="#8DB7E1" stroke="#613393" stroke-width="4" stroke-miterlimit="10" stroke-linecap="round"/>
<path d="M103 83.0154C103 64.2754 87.41 49.0854 68.19 49.0854C48.97 49.0854 33.34 64.2754 33.34 83.0154V84.2554H103V83.0154Z" fill="white"/>
<path d="M33.1 83.8056C33.1 74.4938 36.7991 65.5634 43.3835 58.979C49.9679 52.3946 58.8982 48.6956 68.21 48.6956C77.5218 48.6956 86.4521 52.3946 93.0365 58.979C99.6209 65.5634 103.32 74.4938 103.32 83.8056" stroke="#613393" stroke-width="4" stroke-miterlimit="10" stroke-linecap="round"/>
<path d="M96.25 96.8456C105.7 96.8456 107.55 88.7056 107.92 85.5156C107.937 85.357 107.92 85.1966 107.871 85.0448C107.822 84.893 107.742 84.7532 107.635 84.6345C107.529 84.5157 107.398 84.4206 107.253 84.3554C107.107 84.2901 106.95 84.2561 106.79 84.2556H29.21C29.0505 84.2561 28.8928 84.2901 28.7473 84.3554C28.6017 84.4206 28.4715 84.5157 28.365 84.6345C28.2585 84.7532 28.1781 84.893 28.129 85.0448C28.0799 85.1966 28.0632 85.357 28.08 85.5156C28.45 88.7056 30.3 96.8456 39.75 96.8456H96.25Z" stroke="#613393" stroke-width="4" stroke-miterlimit="10" stroke-linecap="round"/>
<path d="M63.07 48.6155C62.4422 47.681 62.0803 46.5933 62.023 45.4689C61.9658 44.3445 62.2152 43.2257 62.7447 42.2322C63.2742 41.2386 64.0639 40.4077 65.0292 39.8283C65.9945 39.2489 67.0992 38.9429 68.225 38.9429C69.3508 38.9429 70.4555 39.2489 71.4208 39.8283C72.3861 40.4077 73.1758 41.2386 73.7053 42.2322C74.2348 43.2257 74.4842 44.3445 74.4269 45.4689C74.3697 46.5933 74.0078 47.681 73.38 48.6155" stroke="#613393" stroke-width="4" stroke-miterlimit="10" stroke-linecap="round"/>
</g>
<defs>
<clipPath id="clip0_160_285">
<rect width="136" height="136" fill="white" transform="translate(0 0.905518)"/>
</clipPath>
</defs>
</svg>
