<svg width="136" height="137" viewBox="0 0 136 137" fill="none" xmlns="http://www.w3.org/2000/svg">
<g clip-path="url(#clip0_160_170)">
<path d="M68 136.943C105.555 136.943 136 106.499 136 68.9434C136 31.388 105.555 0.943359 68 0.943359C30.4446 0.943359 0 31.388 0 68.9434C0 106.499 30.4446 136.943 68 136.943Z" fill="#F5B333"/>
<path d="M86.53 38.8834V30.7534H47.47V38.8834C44.62 45.8034 39.33 53.3934 39.33 64.8834V102.323C39.3327 103.186 39.6773 104.013 40.2884 104.622C40.8995 105.231 41.7271 105.573 42.59 105.573H91.42C92.2812 105.571 93.1063 105.228 93.7152 104.619C94.3241 104.01 94.6674 103.185 94.67 102.323V64.9434C94.67 53.3934 89.38 45.8034 86.53 38.8834Z" fill="white" stroke="#613393" stroke-width="4" stroke-miterlimit="10" stroke-linecap="round"/>
<path d="M58.86 37.2634H75.14" stroke="#613393" stroke-width="4" stroke-miterlimit="10" stroke-linecap="round"/>
<path d="M83.1 70.0535C81.9088 69.5451 80.5648 69.529 79.3618 70.0087C78.1587 70.4884 77.1946 71.4249 76.68 72.6135L76.41 73.2335C76.6482 72.6633 76.7705 72.0514 76.77 71.4335V68.1835C76.7131 66.9261 76.1736 65.7391 75.2637 64.8695C74.3538 63.9999 73.1436 63.5145 71.885 63.5145C70.6264 63.5145 69.4162 63.9999 68.5063 64.8695C67.5964 65.7391 67.0569 66.9261 67 68.1835C67 66.8892 66.4859 65.648 65.5707 64.7328C64.6555 63.8176 63.4143 63.3035 62.12 63.3035C60.8257 63.3035 59.5845 63.8176 58.6693 64.7328C57.7541 65.648 57.24 66.8892 57.24 68.1835V71.4335C57.2405 72.061 57.3627 72.6825 57.6 73.2635L57.32 72.6135C56.8081 71.42 55.8431 70.4787 54.6373 69.9968C53.4314 69.5148 52.0835 69.5316 50.89 70.0435C49.6965 70.5553 48.7553 71.5203 48.2733 72.7262C47.7913 73.9321 47.8081 75.28 48.32 76.4735L49.6 79.4735C50.1187 80.6585 51.0832 81.5915 52.2848 82.0706C53.4863 82.5497 54.8282 82.5364 56.02 82.0335C57.2085 81.5189 58.145 80.5547 58.6247 79.3517C59.1044 78.1487 59.0884 76.8047 58.58 75.6135L57.58 73.4135C58.0267 74.4473 58.818 75.2943 59.819 75.8104C60.82 76.3264 61.9689 76.4796 63.0702 76.2437C64.1714 76.0079 65.1569 75.3977 65.8589 74.517C66.5608 73.6363 66.9358 72.5396 66.92 71.4135C66.9207 72.5296 67.3039 73.6117 68.0058 74.4795C68.7077 75.3472 69.6858 75.9482 70.7771 76.1821C71.8685 76.416 73.007 76.2688 74.0029 75.765C74.9988 75.2612 75.7919 74.4312 76.25 73.4135L75.32 75.5735C75.0671 76.1723 74.9359 76.8155 74.9341 77.4655C74.9322 78.1156 75.0597 78.7595 75.3091 79.3598C75.5585 79.9601 75.9249 80.5047 76.3869 80.962C76.8488 81.4193 77.3972 81.7802 78 82.0235C79.1904 82.526 80.5308 82.5391 81.7307 82.0599C82.9307 81.5806 83.8933 80.6477 84.41 79.4635L85.69 76.4635C86.1907 75.2694 86.1995 73.9259 85.7144 72.7254C85.2293 71.5248 84.2897 70.5645 83.1 70.0535Z" fill="#8DB7E1"/>
<path d="M67 75.4333C59.79 75.4333 54.16 84.0634 55.93 89.3034C57.7 94.5434 63.54 91.6934 67 91.6934C70.46 91.6934 76.29 94.5534 78.06 89.3034C79.83 84.0534 74.23 75.4333 67 75.4333Z" fill="#8DB7E1"/>
<path d="M62.12 76.3235C60.8256 76.3182 59.5859 75.801 58.6716 74.8848C57.7573 73.9686 57.2426 72.7278 57.24 71.4335V68.1835C57.2426 66.89 57.7576 65.6503 58.6722 64.7357C59.5868 63.8211 60.8265 63.3061 62.12 63.3035V63.3035C63.4134 63.3061 64.6531 63.8211 65.5678 64.7357C66.4824 65.6503 66.9973 66.89 67 68.1835V71.4335C66.9974 72.7278 66.4827 73.9686 65.5684 74.8848C64.654 75.801 63.4143 76.3182 62.12 76.3235Z" stroke="#613393" stroke-width="4" stroke-miterlimit="10" stroke-linecap="round"/>
<path d="M56.05 82.0234C54.8585 82.529 53.5156 82.5437 52.3133 82.0643C51.111 81.5849 50.1466 80.6501 49.63 79.4634L48.35 76.4634C47.8416 75.2722 47.8256 73.9282 48.3053 72.7251C48.785 71.5221 49.7215 70.5579 50.91 70.0434V70.0434C52.0998 69.5354 53.4424 69.5196 54.6438 69.9994C55.8452 70.4792 56.8075 71.4156 57.32 72.6034L58.61 75.6034C59.1184 76.7946 59.1344 78.1386 58.6547 79.3416C58.175 80.5446 57.2385 81.5088 56.05 82.0234V82.0234Z" stroke="#613393" stroke-width="4" stroke-miterlimit="10" stroke-linecap="round"/>
<path d="M76.77 68.1835C76.77 67.5418 76.6434 66.9064 76.3976 66.3137C76.1517 65.7209 75.7914 65.1825 75.3372 64.7293C74.8829 64.276 74.3438 63.9167 73.7506 63.6721C73.1573 63.4274 72.5217 63.3022 71.88 63.3035C70.5857 63.3035 69.3445 63.8176 68.4293 64.7328C67.5141 65.648 67 66.8892 67 68.1835V71.4335C67 72.7287 67.5138 73.9709 68.4287 74.8877C69.3436 75.8045 70.5848 76.3208 71.88 76.3235V76.3235C73.1769 76.3235 74.4207 75.8083 75.3378 74.8912C76.2548 73.9742 76.77 72.7304 76.77 71.4335V68.1835Z" stroke="#613393" stroke-width="4" stroke-miterlimit="10" stroke-linecap="round"/>
<path d="M78 82.0234C79.1901 82.5286 80.5316 82.5431 81.7322 82.0636C82.9329 81.584 83.8954 80.6494 84.41 79.4634L85.69 76.4634C86.1963 75.2731 86.2124 73.9312 85.7349 72.7291C85.2575 71.527 84.325 70.5619 83.14 70.0434V70.0434C81.9488 69.535 80.6048 69.5189 79.4018 69.9987C78.1987 70.4784 77.2346 71.4149 76.72 72.6034L75.44 75.6034C74.9316 76.7946 74.9156 78.1386 75.3953 79.3416C75.875 80.5447 76.8115 81.5088 78 82.0234V82.0234Z" stroke="#613393" stroke-width="4" stroke-miterlimit="10" stroke-linecap="round"/>
<path d="M67 91.6934C70.49 91.6934 76.29 94.5534 78.06 89.3034C79.83 84.0534 74.23 75.4333 67 75.4333C59.77 75.4333 54.19 84.0634 56 89.3034C57.81 94.5434 63.54 91.6934 67 91.6934Z" stroke="#613393" stroke-width="4" stroke-miterlimit="10" stroke-linecap="round"/>
</g>
<defs>
<clipPath id="clip0_160_170">
<rect width="136" height="136" fill="white" transform="translate(0 0.943359)"/>
</clipPath>
</defs>
</svg>
