<svg width="136" height="137" viewBox="0 0 136 137" fill="none" xmlns="http://www.w3.org/2000/svg">
<g clip-path="url(#clip0_160_204)">
<path d="M68 136.906C105.555 136.906 136 106.461 136 68.9055C136 31.3502 105.555 0.905518 68 0.905518C30.4446 0.905518 0 31.3502 0 68.9055C0 106.461 30.4446 136.906 68 136.906Z" fill="#EE8922"/>
<path d="M89 62.1155C92.55 49.4755 94.09 48.1155 94.09 48.1155L94.75 47.1155L79.91 37.3955L79.25 38.3955C79.25 38.3955 78.62 40.3955 68.46 48.6655C68.46 48.6655 45.4 66.6655 50.9 82.6655L64.83 91.7755C81.75 90.4455 89 62.1155 89 62.1155Z" fill="#8DB7E1"/>
<path d="M88.94 32.0156L91.22 28.5256C91.8141 27.6273 92.7384 26.9996 93.7925 26.7786C94.8466 26.5577 95.9452 26.7615 96.85 27.3456C97.7455 27.9426 98.3688 28.8693 98.5842 29.9238C98.7996 30.9783 98.5896 32.0752 98 32.9756L95.72 36.4656" fill="white"/>
<path d="M98.8803 40.0926L84.354 30.5869C82.4778 29.3591 79.9615 29.8848 78.7337 31.761L78.7282 31.7694C77.5004 33.6457 78.0261 36.162 79.9024 37.3898L94.4286 46.8955C96.3048 48.1233 98.8212 47.5976 100.049 45.7213L100.054 45.7129C101.282 43.8367 100.757 41.3204 98.8803 40.0926Z" fill="white"/>
<path d="M67.26 100.976C68.53 99.0356 67.6 94.5756 65.65 93.2956L48.91 82.2956C47 81.0656 42.5 81.9956 41.23 83.9056L39.64 86.3356L65.64 103.336L67.26 100.976Z" fill="white"/>
<path d="M67.26 100.976C68.53 99.0356 67.6 94.5756 65.65 93.2956L48.91 82.2956C47 81.0656 42.5 81.9956 41.23 83.9056L39.64 86.3356L65.64 103.336L67.26 100.976Z" stroke="#613393" stroke-width="4" stroke-linecap="round" stroke-linejoin="round"/>
<path d="M98.8803 40.0926L84.354 30.5869C82.4778 29.3591 79.9615 29.8848 78.7337 31.761L78.7282 31.7694C77.5004 33.6457 78.0261 36.162 79.9024 37.3898L94.4286 46.8955C96.3048 48.1233 98.8212 47.5976 100.049 45.7213L100.054 45.7129C101.282 43.8367 100.757 41.3204 98.8803 40.0926Z" stroke="#613393" stroke-width="4" stroke-miterlimit="10" stroke-linecap="round"/>
<path d="M88.94 32.0156L91.22 28.5256C91.8141 27.6273 92.7384 26.9996 93.7925 26.7786C94.8466 26.5577 95.9452 26.7615 96.85 27.3456V27.3456C97.7455 27.9426 98.3688 28.8693 98.5842 29.9238C98.7996 30.9783 98.5896 32.0752 98 32.9756L95.72 36.4656" stroke="#613393" stroke-width="4" stroke-miterlimit="10" stroke-linecap="round"/>
<path d="M79.25 38.4055C79.25 38.4055 78.62 40.4055 68.46 48.6755C68.46 48.6755 45.4 66.6755 50.9 82.6755" stroke="#613393" stroke-width="4" stroke-linecap="round" stroke-linejoin="round"/>
<path d="M94 48.0354C94 48.0354 92.46 49.3954 88.91 62.0354C88.91 62.0354 81.66 90.3654 64.73 91.7554" stroke="#613393" stroke-width="4" stroke-linecap="round" stroke-linejoin="round"/>
<path d="M41.88 102.976C43.1447 102.976 44.17 101.95 44.17 100.686C44.17 99.4208 43.1447 98.3955 41.88 98.3955C40.6153 98.3955 39.59 99.4208 39.59 100.686C39.59 101.95 40.6153 102.976 41.88 102.976Z" fill="#623493"/>
<path d="M51.99 109.586C53.2547 109.586 54.28 108.56 54.28 107.296C54.28 106.031 53.2547 105.006 51.99 105.006C50.7253 105.006 49.7 106.031 49.7 107.296C49.7 108.56 50.7253 109.586 51.99 109.586Z" fill="#623493"/>
<path d="M42.03 113.576C43.2947 113.576 44.32 112.55 44.32 111.286C44.32 110.021 43.2947 108.996 42.03 108.996C40.7653 108.996 39.74 110.021 39.74 111.286C39.74 112.55 40.7653 113.576 42.03 113.576Z" fill="#623493"/>
</g>
<defs>
<clipPath id="clip0_160_204">
<rect width="136" height="136" fill="white" transform="translate(0 0.905518)"/>
</clipPath>
</defs>
</svg>
