<svg width="137" height="137" viewBox="0 0 137 137" fill="none" xmlns="http://www.w3.org/2000/svg">
<g clip-path="url(#clip0_160_180)">
<path d="M68.6666 136.943C106.222 136.943 136.667 106.499 136.667 68.9434C136.667 31.388 106.222 0.943359 68.6666 0.943359C31.1113 0.943359 0.666626 31.388 0.666626 68.9434C0.666626 106.499 31.1113 136.943 68.6666 136.943Z" fill="#F5B333"/>
<path d="M85.0566 83.3233C93.0566 78.3233 101.907 69.0433 106.057 52.0833C106.057 52.0833 86.9666 54.8533 75.7566 71.8233C77.8766 61.5233 77.5866 47.2833 68.5066 30.6533C68.5066 30.6533 56.7766 48.1833 61.1666 70.6533C49.8566 54.7333 31.6666 52.0833 31.6666 52.0833C35.7666 69.0133 44.5766 78.2533 52.5866 83.2933C44.519 82.6402 36.4697 84.7566 29.7666 89.2933C52.4666 103.113 68.4866 89.2933 68.4866 89.2933H68.4166H68.7466C68.7466 89.1633 68.6866 89.0433 68.6666 88.9133L68.8966 88.5733C68.8966 88.8133 68.7866 89.0433 68.7466 89.2933C91.4466 103.113 107.467 89.2933 107.467 89.2933C100.973 84.6399 93.0044 82.517 85.0566 83.3233Z" fill="#8DB7E1"/>
<path d="M68.4866 89.2734C68.4866 89.2734 52.4866 103.093 29.7666 89.2734C36.208 84.9132 43.8997 82.7813 51.6666 83.2034" fill="#8DB7E1"/>
<path d="M68.4866 89.2734C68.4866 89.2734 52.4866 103.093 29.7666 89.2734C36.208 84.9132 43.8997 82.7813 51.6666 83.2034" stroke="#613393" stroke-width="4" stroke-linecap="round" stroke-linejoin="round"/>
<path d="M85.6666 83.2534C93.4342 82.5989 101.182 84.7253 107.527 89.2534C107.527 89.2534 91.5266 103.073 68.8066 89.2534" stroke="#613393" stroke-width="4" stroke-linecap="round" stroke-linejoin="round"/>
<path d="M68.8466 89.2733C68.8466 89.2733 97.5066 87.1533 106.037 52.0833C106.037 52.0833 86.9366 54.8533 75.7366 71.8133" stroke="#613393" stroke-width="4" stroke-linecap="round" stroke-linejoin="round"/>
<path d="M68.8466 89.2733C68.8466 89.2733 40.1766 87.1533 31.6666 52.0833C31.6666 52.0833 49.1266 54.6133 60.4466 69.6733" stroke="#613393" stroke-width="4" stroke-linecap="round" stroke-linejoin="round"/>
<path d="M68.4866 30.6533C68.4866 30.6533 49.7166 58.6533 68.4866 89.2733C68.4866 89.2733 87.2566 65.0133 68.4866 30.6533Z" stroke="#613393" stroke-width="4" stroke-linecap="round" stroke-linejoin="round"/>
<path d="M68.8466 104.573V89.2734" stroke="#613393" stroke-width="4" stroke-linecap="round" stroke-linejoin="round"/>
</g>
<defs>
<clipPath id="clip0_160_180">
<rect width="136" height="136" fill="white" transform="translate(0.666626 0.943359)"/>
</clipPath>
</defs>
</svg>
