<svg width="137" height="137" viewBox="0 0 137 137" fill="none" xmlns="http://www.w3.org/2000/svg">
<path d="M68.3333 136.981C105.889 136.981 136.333 106.537 136.333 68.9812C136.333 31.4258 105.889 0.981201 68.3333 0.981201C30.778 0.981201 0.333344 31.4258 0.333344 68.9812C0.333344 106.537 30.778 136.981 68.3333 136.981Z" fill="#8DB7E1"/>
<path d="M77.8333 106.181L39.0333 93.7811C36.1333 92.8811 34.4333 89.6811 35.4333 86.6811L51.6333 35.9811C52.5333 33.0811 55.7333 31.3811 58.7333 32.3811L97.5333 44.7811C100.433 45.6811 102.133 48.8811 101.133 51.8811L84.9333 102.581C83.9333 105.481 80.7333 107.081 77.8333 106.181Z" fill="#5E85C4"/>
<path d="M77.8333 106.181L39.0333 93.7811C36.1333 92.8811 34.4333 89.6811 35.4333 86.6811L51.6333 35.9811C52.5333 33.0811 55.7333 31.3811 58.7333 32.3811L97.5333 44.7811C100.433 45.6811 102.133 48.8811 101.133 51.8811L84.9333 102.581C83.9333 105.481 80.7333 107.081 77.8333 106.181Z" stroke="#613393" stroke-width="4" stroke-miterlimit="10" stroke-linecap="round" stroke-linejoin="round"/>
<path d="M82.6333 41.6811C83.0333 41.1811 83.3333 40.6811 83.5333 40.0811C84.4333 37.3811 82.6333 34.3811 79.7333 33.4811C76.7333 32.5811 73.6333 33.9811 72.7333 36.6811C72.5333 37.2811 72.5333 37.8811 72.5333 38.4811L66.2333 36.4811L63.1333 46.2811L85.7333 53.4811L88.8333 43.6811L82.6333 41.6811Z" stroke="#613393" stroke-width="4" stroke-miterlimit="10" stroke-linecap="round" stroke-linejoin="round"/>
<path d="M82.6333 41.6811C83.0333 41.1811 83.3333 40.6811 83.5333 40.0811C84.4333 37.3811 82.6333 34.3811 79.7333 33.4811C76.7333 32.5811 73.6333 33.9811 72.7333 36.6811C72.5333 37.2811 72.5333 37.8811 72.5333 38.4811L66.2333 36.4811L63.1333 46.2811L85.7333 53.4811L88.8333 43.6811L82.6333 41.6811Z" fill="white" stroke="#613393" stroke-width="4" stroke-miterlimit="10" stroke-linecap="round"/>
<path d="M79.0333 76.0812L70.5333 73.3812L73.2333 64.8812C73.4333 64.2812 73.1333 63.5812 72.4333 63.3812L68.7333 62.1812C68.1333 61.9812 67.4333 62.2812 67.2333 62.9812L64.5333 71.4812L56.0333 68.7812C55.4333 68.5812 54.7333 68.8812 54.5333 69.5812L53.3333 73.0812C53.1333 73.6812 53.4333 74.3812 54.1333 74.5812L62.6333 77.2812L59.9333 85.7812C59.7333 86.3812 60.0333 87.0812 60.7333 87.2812L64.4333 88.4812C65.0333 88.6812 65.7333 88.3812 65.9333 87.6812L68.6333 79.1812L77.1333 81.8812C77.7333 82.0812 78.4333 81.7812 78.6333 81.0812L79.8333 77.3812C80.0333 76.8812 79.7333 76.2812 79.0333 76.0812Z" fill="white"/>
</svg>
