<svg width="137" height="137" viewBox="0 0 137 137" fill="none" xmlns="http://www.w3.org/2000/svg">
<g clip-path="url(#clip0_160_158)">
<path d="M68.2433 136.943C105.799 136.943 136.243 106.499 136.243 68.9434C136.243 31.388 105.799 0.943359 68.2433 0.943359C30.688 0.943359 0.243332 31.388 0.243332 68.9434C0.243332 106.499 30.688 136.943 68.2433 136.943Z" fill="#F5B333"/>
<path d="M44.9233 44.6032H90.6033C90.6858 44.6026 90.7674 44.6196 90.8427 44.653C90.9181 44.6865 90.9854 44.7356 91.0403 44.7971C91.0952 44.8586 91.1364 44.9311 91.161 45.0097C91.1857 45.0884 91.1933 45.1714 91.1833 45.2532L83.6933 107.543C83.6761 107.687 83.6064 107.82 83.4976 107.916C83.3888 108.012 83.2484 108.064 83.1033 108.063H52.7133C52.5683 108.064 52.4279 108.012 52.3191 107.916C52.2102 107.82 52.1405 107.687 52.1233 107.543L44.3333 45.2632C44.3217 45.1798 44.3283 45.0948 44.3529 45.0142C44.3774 44.9336 44.4192 44.8593 44.4753 44.7965C44.5315 44.7337 44.6007 44.6838 44.678 44.6505C44.7554 44.6171 44.8391 44.601 44.9233 44.6032Z" fill="white"/>
<path d="M87.9433 72.2134H68.6433C66.0033 66.9434 47.2733 68.6834 47.2733 68.6834L52.7133 108.063H83.1033L87.9433 72.2134Z" fill="#8DB7E1"/>
<path d="M44.9233 44.6032H90.6033C90.6858 44.6026 90.7674 44.6196 90.8427 44.653C90.9181 44.6865 90.9854 44.7356 91.0403 44.7971C91.0952 44.8586 91.1364 44.9311 91.161 45.0097C91.1857 45.0884 91.1933 45.1714 91.1833 45.2532L83.6933 107.543C83.6761 107.687 83.6064 107.82 83.4976 107.916C83.3888 108.012 83.2484 108.064 83.1033 108.063H52.7133C52.5683 108.064 52.4279 108.012 52.3191 107.916C52.2102 107.82 52.1405 107.687 52.1233 107.543L44.3333 45.2632C44.3217 45.1798 44.3283 45.0948 44.3529 45.0142C44.3774 44.9336 44.4192 44.8593 44.4753 44.7965C44.5315 44.7337 44.6007 44.6838 44.678 44.6505C44.7554 44.6171 44.8391 44.601 44.9233 44.6032V44.6032Z" stroke="#613393" stroke-width="4" stroke-miterlimit="10" stroke-linecap="round"/>
<path d="M87.9433 72.2134H68.6433C66.0033 66.9434 47.2733 68.6834 47.2733 68.6834" fill="white"/>
<path d="M87.9433 72.2134H68.6433C66.0033 66.9434 47.2733 68.6834 47.2733 68.6834" stroke="#613393" stroke-width="4" stroke-miterlimit="10" stroke-linecap="round"/>
<path d="M93.6133 28.7334H75.6933L67.7633 80.7334" stroke="#613393" stroke-width="4" stroke-miterlimit="10" stroke-linecap="round"/>
</g>
<defs>
<clipPath id="clip0_160_158">
<rect width="136" height="136" fill="white" transform="translate(0.333328 0.943359)"/>
</clipPath>
</defs>
</svg>
